<svg width="645" height="457" viewBox="0 0 645 457" fill="none" xmlns="http://www.w3.org/2000/svg">
<g clip-path="url(#clip0_162_43)">
<rect width="645" height="457" fill="#F288CC"/>
<path d="M736 222.5C736 277.537 695.177 322 645 322C594.823 322 554 277.537 554 222.5C554 167.463 594.823 123 645 123C695.177 123 736 167.463 736 222.5Z" stroke="#E52082" stroke-width="2"/>
<path d="M817 193C817 247.762 776.4 292 726.5 292C676.6 292 636 247.762 636 193C636 138.238 676.6 94 726.5 94C776.4 94 817 138.238 817 193Z" stroke="#E52082" stroke-width="2"/>
<path d="M644 223C644 277.762 603.4 322 553.5 322C503.6 322 463 277.762 463 223C463 168.238 503.6 124 553.5 124C603.4 124 644 168.238 644 223Z" stroke="#E52082" stroke-width="2"/>
<path d="M817 269C817 323.762 776.4 368 726.5 368C676.6 368 636 323.762 636 269C636 214.238 676.6 170 726.5 170C776.4 170 817 214.238 817 269Z" stroke="#E52082" stroke-width="2"/>
<path d="M774 319.5C774 373.981 733.405 418 683.5 418C633.595 418 593 373.981 593 319.5C593 265.019 633.595 221 683.5 221C733.405 221 774 265.019 774 319.5Z" stroke="#E52082" stroke-width="2"/>
<path d="M697 319.5C697 373.981 656.405 418 606.5 418C556.595 418 516 373.981 516 319.5C516 265.019 556.595 221 606.5 221C656.405 221 697 265.019 697 319.5Z" stroke="#E52082" stroke-width="2"/>
<path d="M650 261C650 315.751 608.962 360 558.5 360C508.038 360 467 315.751 467 261C467 206.249 508.038 162 558.5 162C608.962 162 650 206.249 650 261Z" stroke="#E52082" stroke-width="2"/>
<path d="M648 188C648 242.762 607.4 287 557.5 287C507.6 287 467 242.762 467 188C467 133.238 507.6 89 557.5 89C607.4 89 648 133.238 648 188Z" stroke="#E52082" stroke-width="2"/>
<path d="M736 128C736 182.756 695.181 227 645 227C594.819 227 554 182.756 554 128C554 73.2437 594.819 29 645 29C695.181 29 736 73.2437 736 128Z" stroke="#E52082" stroke-width="2"/>
<path d="M741 328.5C741 383.543 700.396 428 650.5 428C600.604 428 560 383.543 560 328.5C560 273.457 600.604 229 650.5 229C700.396 229 741 273.457 741 328.5Z" stroke="#E52082" stroke-width="2"/>
<path d="M799 299C799 353.762 758.4 398 708.5 398C658.6 398 618 353.762 618 299C618 244.238 658.6 200 708.5 200C758.4 200 799 244.238 799 299Z" stroke="#E52082" stroke-width="2"/>
<path d="M667 160.5C667 215.543 626.396 260 576.5 260C526.604 260 486 215.543 486 160.5C486 105.457 526.604 61 576.5 61C626.396 61 667 105.457 667 160.5Z" stroke="#E52082" stroke-width="2"/>
<path d="M796 155.5C796 210.537 755.177 255 705 255C654.823 255 614 210.537 614 155.5C614 100.463 654.823 56 705 56C755.177 56 796 100.463 796 155.5Z" stroke="#E52082" stroke-width="2"/>
<path d="M667 293.5C667 348.543 626.396 393 576.5 393C526.604 393 486 348.543 486 293.5C486 238.457 526.604 194 576.5 194C626.396 194 667 238.457 667 293.5Z" stroke="#E52082" stroke-width="2"/>
<path d="M695 141.5C695 196.537 654.177 241 604 241C553.823 241 513 196.537 513 141.5C513 86.4627 553.823 42 604 42C654.177 42 695 86.4627 695 141.5Z" stroke="#E52082" stroke-width="2"/>
<path d="M770 197C770 252.886 729.382 298 679.5 298C629.618 298 589 252.886 589 197C589 141.114 629.618 96 679.5 96C729.382 96 770 141.114 770 197Z" stroke="#E52082" stroke-width="2"/>
</g>
<defs>
<clipPath id="clip0_162_43">
<rect width="645" height="457" fill="white"/>
</clipPath>
</defs>
</svg>
